M48
; DRILL file {KiCad 7.0.8} date Tue Jul 30 15:52:01 2024
; FORMAT={-:-/ absolute / inch / decimal}
; #@! TF.CreationDate,2024-07-30T15:52:01+02:00
; #@! TF.GenerationSoftware,Kicad,Pcbnew,7.0.8
; #@! TF.FileFunction,Plated,1,2,PTH
FMAT,2
INCH
; #@! TA.AperFunction,Plated,PTH,ViaDrill
T1C0.0157
; #@! TA.AperFunction,Plated,PTH,ViaDrill
T2C0.0276
; #@! TA.AperFunction,Plated,PTH,ComponentDrill
T3C0.0315
; #@! TA.AperFunction,Plated,PTH,ComponentDrill
T4C0.0354
; #@! TA.AperFunction,Plated,PTH,ViaDrill
T5C0.0394
; #@! TA.AperFunction,Plated,PTH,ComponentDrill
T6C0.0394
; #@! TA.AperFunction,Plated,PTH,ComponentDrill
T7C0.0409
; #@! TA.AperFunction,Plated,PTH,ComponentDrill
T8C0.0433
; #@! TA.AperFunction,Plated,PTH,ComponentDrill
T9C0.0453
; #@! TA.AperFunction,Plated,PTH,ComponentDrill
T10C0.0591
; #@! TA.AperFunction,Plated,PTH,ViaDrill
T11C0.1378
%
G90
G05
T1
X3.06Y-4.16
X3.24Y-3.795
X4.05Y-3.59
X4.13Y-3.665
X4.13Y-3.73
X4.13Y-3.795
X4.13Y-3.855
X4.13Y-3.915
X4.13Y-3.97
X4.14Y-2.6
X4.2525Y-4.0275
X4.28Y-4.08
X4.725Y-2.365
X4.775Y-2.4
X5.065Y-3.22
X5.07Y-3.665
X5.07Y-3.855
X5.105Y-4.26
X5.11Y-3.54
X5.16Y-2.74
X5.16Y-3.22
X5.165Y-3.915
X5.195Y-4.025
X5.215Y-4.08
X5.23Y-4.135
X5.28Y-2.03
X5.305Y-2.955
X5.305Y-3.025
X5.305Y-3.095
X5.54Y-3.73
X5.54Y-3.795
X5.54Y-3.97
X5.6Y-3.345
X5.635Y-3.06
X5.635Y-3.55
X5.865Y-2.865
X6.245Y-3.715
X6.31Y-3.62
X6.345Y-4.245
X6.435Y-3.715
X6.69Y-2.945
X6.7025Y-3.2075
X6.755Y-3.25
X6.98Y-3.48
X7.0Y-3.245
X7.225Y-3.12
X7.325Y-3.03
X7.366Y-2.735
T2
X3.11Y-3.51
X3.13Y-2.095
X4.31Y-3.51
X4.71Y-2.495
X4.91Y-3.145
X5.02Y-2.34
X5.9775Y-2.2625
X6.485Y-2.99
X6.576Y-2.022
X6.735Y-3.565
X7.055Y-4.025
X7.12Y-3.6
T3
X4.04Y-4.535
X4.44Y-4.535
X5.87Y-4.4
X6.03Y-3.37
X6.27Y-4.4
X6.389Y-2.525
X6.43Y-3.37
X6.4874Y-2.525
X6.675Y-2.125
X6.675Y-2.525
X6.675Y-2.785
X6.945Y-2.125
X6.945Y-2.525
X7.075Y-2.785
T4
X6.6898Y-3.37
X6.7898Y-3.37
T5
X3.61Y-3.15
X3.66Y-2.935
T6
X2.849Y-2.3042
X2.849Y-2.4042
X3.09Y-2.475
X3.09Y-2.775
X3.19Y-2.475
X3.19Y-2.775
X3.21Y-2.294
X3.29Y-2.475
X3.29Y-2.775
X3.31Y-2.294
X3.39Y-2.475
X3.39Y-2.775
X3.49Y-2.775
X3.59Y-2.775
X3.67Y-2.095
X3.67Y-2.195
X3.67Y-2.295
X3.67Y-2.395
X3.67Y-2.495
X3.69Y-2.775
X3.79Y-2.775
X3.89Y-2.775
X3.94Y-3.049
X3.97Y-2.095
X3.97Y-2.195
X3.97Y-2.295
X3.97Y-2.395
X3.97Y-2.495
X3.99Y-2.775
X4.04Y-3.049
X4.09Y-2.775
X4.14Y-3.049
X4.19Y-2.775
X4.24Y-3.049
X4.27Y-2.095
X4.27Y-2.195
X4.27Y-2.295
X4.27Y-2.395
X4.27Y-2.495
X4.29Y-2.775
X4.39Y-2.775
X4.49Y-2.775
X4.57Y-2.095
X4.57Y-2.195
X4.57Y-2.295
X4.57Y-2.395
X4.57Y-2.495
X4.59Y-2.775
X4.69Y-2.775
X4.87Y-2.095
X4.87Y-2.195
X4.87Y-2.295
X4.87Y-2.395
X4.87Y-2.495
X5.17Y-2.095
X5.17Y-2.195
X5.17Y-2.295
X5.17Y-2.395
X5.17Y-2.495
X5.47Y-2.095
X5.47Y-2.195
X5.47Y-2.295
X5.47Y-2.395
X5.47Y-2.495
X5.77Y-2.095
X5.77Y-2.195
X5.77Y-2.295
X5.77Y-2.395
X5.77Y-2.495
X6.146Y-2.0954
X6.146Y-2.1954
X6.146Y-2.2954
X6.146Y-2.3954
X6.39Y-3.12
X6.49Y-3.12
X6.59Y-3.12
X6.69Y-3.12
X6.79Y-3.12
X6.89Y-3.12
X6.99Y-3.12
X7.27Y-2.425
X7.27Y-2.525
X7.27Y-2.625
T7
X3.04Y-3.26
X3.04Y-4.26
X3.14Y-3.26
X3.14Y-4.26
X3.24Y-3.26
X3.24Y-4.26
X3.34Y-3.26
X3.34Y-4.26
X3.44Y-3.26
X3.44Y-4.26
X3.54Y-3.26
X3.54Y-4.26
X3.64Y-3.26
X3.64Y-4.26
X3.74Y-3.26
X3.74Y-4.26
X3.84Y-3.26
X3.84Y-4.26
X3.94Y-3.26
X3.94Y-4.26
X4.04Y-3.26
X4.04Y-4.26
X4.14Y-3.26
X4.14Y-4.26
X4.24Y-3.26
X4.24Y-4.26
X4.34Y-3.26
X4.34Y-4.26
X4.44Y-3.26
X4.44Y-4.26
X4.54Y-3.26
X4.54Y-4.26
X4.64Y-3.26
X4.64Y-4.26
X4.74Y-3.26
X4.74Y-4.26
X4.84Y-3.26
X4.84Y-4.26
T8
X6.612Y-4.4014
X6.612Y-4.5786
X6.868Y-4.4014
X6.868Y-4.5786
T9
X7.225Y-3.4
X7.225Y-3.5
X7.225Y-3.6
X7.225Y-3.7
X7.225Y-3.8
X7.225Y-3.9
X7.225Y-4.0
X7.225Y-4.1
T10
X6.64Y-4.16
X6.89Y-4.06
T11
X2.9134Y-2.0866
X2.9134Y-4.4488
X7.2441Y-2.0866
X7.2441Y-4.4488
T0
M30
