%TF.GenerationSoftware,KiCad,Pcbnew,7.0.8*%
%TF.CreationDate,2024-07-30T15:52:23+02:00*%
%TF.ProjectId,RWTH,52575448-2e6b-4696-9361-645f70636258,rev?*%
%TF.SameCoordinates,Original*%
%TF.FileFunction,Legend,Bot*%
%TF.FilePolarity,Positive*%
%FSLAX46Y46*%
G04 Gerber Fmt 4.6, Leading zero omitted, Abs format (unit mm)*
G04 Created by KiCad (PCBNEW 7.0.8) date 2024-07-30 15:52:23*
%MOMM*%
%LPD*%
G01*
G04 APERTURE LIST*
%ADD10C,0.150000*%
G04 APERTURE END LIST*
D10*
X111379000Y-52070000D02*
X111379000Y-50800000D01*
X103632000Y-50038000D02*
X118872000Y-50038000D01*
X135001000Y-50800000D02*
X135001000Y-52070000D01*
X135001000Y-50800000D02*
X141859000Y-50800000D01*
X118872000Y-50038000D02*
X118872000Y-52070000D01*
X141859000Y-50800000D02*
X141859000Y-52070000D01*
X111379000Y-50800000D02*
X118364000Y-50800000D01*
X119380000Y-50800000D02*
X135001000Y-50800000D01*
X103632000Y-52070000D02*
X103632000Y-50038000D01*
X149244207Y-57797819D02*
X148577541Y-58797819D01*
X148577541Y-57797819D02*
X149244207Y-58797819D01*
X97666112Y-61290200D02*
X97523255Y-61337819D01*
X97523255Y-61337819D02*
X97285160Y-61337819D01*
X97285160Y-61337819D02*
X97189922Y-61290200D01*
X97189922Y-61290200D02*
X97142303Y-61242580D01*
X97142303Y-61242580D02*
X97094684Y-61147342D01*
X97094684Y-61147342D02*
X97094684Y-61052104D01*
X97094684Y-61052104D02*
X97142303Y-60956866D01*
X97142303Y-60956866D02*
X97189922Y-60909247D01*
X97189922Y-60909247D02*
X97285160Y-60861628D01*
X97285160Y-60861628D02*
X97475636Y-60814009D01*
X97475636Y-60814009D02*
X97570874Y-60766390D01*
X97570874Y-60766390D02*
X97618493Y-60718771D01*
X97618493Y-60718771D02*
X97666112Y-60623533D01*
X97666112Y-60623533D02*
X97666112Y-60528295D01*
X97666112Y-60528295D02*
X97618493Y-60433057D01*
X97618493Y-60433057D02*
X97570874Y-60385438D01*
X97570874Y-60385438D02*
X97475636Y-60337819D01*
X97475636Y-60337819D02*
X97237541Y-60337819D01*
X97237541Y-60337819D02*
X97094684Y-60385438D01*
X96094684Y-61242580D02*
X96142303Y-61290200D01*
X96142303Y-61290200D02*
X96285160Y-61337819D01*
X96285160Y-61337819D02*
X96380398Y-61337819D01*
X96380398Y-61337819D02*
X96523255Y-61290200D01*
X96523255Y-61290200D02*
X96618493Y-61194961D01*
X96618493Y-61194961D02*
X96666112Y-61099723D01*
X96666112Y-61099723D02*
X96713731Y-60909247D01*
X96713731Y-60909247D02*
X96713731Y-60766390D01*
X96713731Y-60766390D02*
X96666112Y-60575914D01*
X96666112Y-60575914D02*
X96618493Y-60480676D01*
X96618493Y-60480676D02*
X96523255Y-60385438D01*
X96523255Y-60385438D02*
X96380398Y-60337819D01*
X96380398Y-60337819D02*
X96285160Y-60337819D01*
X96285160Y-60337819D02*
X96142303Y-60385438D01*
X96142303Y-60385438D02*
X96094684Y-60433057D01*
X95189922Y-61337819D02*
X95666112Y-61337819D01*
X95666112Y-61337819D02*
X95666112Y-60337819D01*
X126669922Y-62877819D02*
X127146112Y-62877819D01*
X127146112Y-62877819D02*
X127193731Y-63354009D01*
X127193731Y-63354009D02*
X127146112Y-63306390D01*
X127146112Y-63306390D02*
X127050874Y-63258771D01*
X127050874Y-63258771D02*
X126812779Y-63258771D01*
X126812779Y-63258771D02*
X126717541Y-63306390D01*
X126717541Y-63306390D02*
X126669922Y-63354009D01*
X126669922Y-63354009D02*
X126622303Y-63449247D01*
X126622303Y-63449247D02*
X126622303Y-63687342D01*
X126622303Y-63687342D02*
X126669922Y-63782580D01*
X126669922Y-63782580D02*
X126717541Y-63830200D01*
X126717541Y-63830200D02*
X126812779Y-63877819D01*
X126812779Y-63877819D02*
X127050874Y-63877819D01*
X127050874Y-63877819D02*
X127146112Y-63830200D01*
X127146112Y-63830200D02*
X127193731Y-63782580D01*
X126336588Y-62877819D02*
X126003255Y-63877819D01*
X126003255Y-63877819D02*
X125669922Y-62877819D01*
X128193731Y-56210200D02*
X128050874Y-56257819D01*
X128050874Y-56257819D02*
X127812779Y-56257819D01*
X127812779Y-56257819D02*
X127717541Y-56210200D01*
X127717541Y-56210200D02*
X127669922Y-56162580D01*
X127669922Y-56162580D02*
X127622303Y-56067342D01*
X127622303Y-56067342D02*
X127622303Y-55972104D01*
X127622303Y-55972104D02*
X127669922Y-55876866D01*
X127669922Y-55876866D02*
X127717541Y-55829247D01*
X127717541Y-55829247D02*
X127812779Y-55781628D01*
X127812779Y-55781628D02*
X128003255Y-55734009D01*
X128003255Y-55734009D02*
X128098493Y-55686390D01*
X128098493Y-55686390D02*
X128146112Y-55638771D01*
X128146112Y-55638771D02*
X128193731Y-55543533D01*
X128193731Y-55543533D02*
X128193731Y-55448295D01*
X128193731Y-55448295D02*
X128146112Y-55353057D01*
X128146112Y-55353057D02*
X128098493Y-55305438D01*
X128098493Y-55305438D02*
X128003255Y-55257819D01*
X128003255Y-55257819D02*
X127765160Y-55257819D01*
X127765160Y-55257819D02*
X127622303Y-55305438D01*
X127193731Y-56257819D02*
X127193731Y-55257819D01*
X127193731Y-55257819D02*
X126955636Y-55257819D01*
X126955636Y-55257819D02*
X126812779Y-55305438D01*
X126812779Y-55305438D02*
X126717541Y-55400676D01*
X126717541Y-55400676D02*
X126669922Y-55495914D01*
X126669922Y-55495914D02*
X126622303Y-55686390D01*
X126622303Y-55686390D02*
X126622303Y-55829247D01*
X126622303Y-55829247D02*
X126669922Y-56019723D01*
X126669922Y-56019723D02*
X126717541Y-56114961D01*
X126717541Y-56114961D02*
X126812779Y-56210200D01*
X126812779Y-56210200D02*
X126955636Y-56257819D01*
X126955636Y-56257819D02*
X127193731Y-56257819D01*
X126241350Y-55972104D02*
X125765160Y-55972104D01*
X126336588Y-56257819D02*
X126003255Y-55257819D01*
X126003255Y-55257819D02*
X125669922Y-56257819D01*
X150196588Y-60337819D02*
X149577541Y-60337819D01*
X149577541Y-60337819D02*
X149910874Y-60718771D01*
X149910874Y-60718771D02*
X149768017Y-60718771D01*
X149768017Y-60718771D02*
X149672779Y-60766390D01*
X149672779Y-60766390D02*
X149625160Y-60814009D01*
X149625160Y-60814009D02*
X149577541Y-60909247D01*
X149577541Y-60909247D02*
X149577541Y-61147342D01*
X149577541Y-61147342D02*
X149625160Y-61242580D01*
X149625160Y-61242580D02*
X149672779Y-61290200D01*
X149672779Y-61290200D02*
X149768017Y-61337819D01*
X149768017Y-61337819D02*
X150053731Y-61337819D01*
X150053731Y-61337819D02*
X150148969Y-61290200D01*
X150148969Y-61290200D02*
X150196588Y-61242580D01*
X149196588Y-60433057D02*
X149148969Y-60385438D01*
X149148969Y-60385438D02*
X149053731Y-60337819D01*
X149053731Y-60337819D02*
X148815636Y-60337819D01*
X148815636Y-60337819D02*
X148720398Y-60385438D01*
X148720398Y-60385438D02*
X148672779Y-60433057D01*
X148672779Y-60433057D02*
X148625160Y-60528295D01*
X148625160Y-60528295D02*
X148625160Y-60623533D01*
X148625160Y-60623533D02*
X148672779Y-60766390D01*
X148672779Y-60766390D02*
X149244207Y-61337819D01*
X149244207Y-61337819D02*
X148625160Y-61337819D01*
X150720398Y-52892438D02*
X150815636Y-52844819D01*
X150815636Y-52844819D02*
X150958493Y-52844819D01*
X150958493Y-52844819D02*
X151101350Y-52892438D01*
X151101350Y-52892438D02*
X151196588Y-52987676D01*
X151196588Y-52987676D02*
X151244207Y-53082914D01*
X151244207Y-53082914D02*
X151291826Y-53273390D01*
X151291826Y-53273390D02*
X151291826Y-53416247D01*
X151291826Y-53416247D02*
X151244207Y-53606723D01*
X151244207Y-53606723D02*
X151196588Y-53701961D01*
X151196588Y-53701961D02*
X151101350Y-53797200D01*
X151101350Y-53797200D02*
X150958493Y-53844819D01*
X150958493Y-53844819D02*
X150863255Y-53844819D01*
X150863255Y-53844819D02*
X150720398Y-53797200D01*
X150720398Y-53797200D02*
X150672779Y-53749580D01*
X150672779Y-53749580D02*
X150672779Y-53416247D01*
X150672779Y-53416247D02*
X150863255Y-53416247D01*
X150244207Y-53844819D02*
X150244207Y-52844819D01*
X150244207Y-52844819D02*
X149672779Y-53844819D01*
X149672779Y-53844819D02*
X149672779Y-52844819D01*
X149196588Y-53844819D02*
X149196588Y-52844819D01*
X149196588Y-52844819D02*
X148958493Y-52844819D01*
X148958493Y-52844819D02*
X148815636Y-52892438D01*
X148815636Y-52892438D02*
X148720398Y-52987676D01*
X148720398Y-52987676D02*
X148672779Y-53082914D01*
X148672779Y-53082914D02*
X148625160Y-53273390D01*
X148625160Y-53273390D02*
X148625160Y-53416247D01*
X148625160Y-53416247D02*
X148672779Y-53606723D01*
X148672779Y-53606723D02*
X148720398Y-53701961D01*
X148720398Y-53701961D02*
X148815636Y-53797200D01*
X148815636Y-53797200D02*
X148958493Y-53844819D01*
X148958493Y-53844819D02*
X149196588Y-53844819D01*
X128146112Y-53797200D02*
X128003255Y-53844819D01*
X128003255Y-53844819D02*
X127765160Y-53844819D01*
X127765160Y-53844819D02*
X127669922Y-53797200D01*
X127669922Y-53797200D02*
X127622303Y-53749580D01*
X127622303Y-53749580D02*
X127574684Y-53654342D01*
X127574684Y-53654342D02*
X127574684Y-53559104D01*
X127574684Y-53559104D02*
X127622303Y-53463866D01*
X127622303Y-53463866D02*
X127669922Y-53416247D01*
X127669922Y-53416247D02*
X127765160Y-53368628D01*
X127765160Y-53368628D02*
X127955636Y-53321009D01*
X127955636Y-53321009D02*
X128050874Y-53273390D01*
X128050874Y-53273390D02*
X128098493Y-53225771D01*
X128098493Y-53225771D02*
X128146112Y-53130533D01*
X128146112Y-53130533D02*
X128146112Y-53035295D01*
X128146112Y-53035295D02*
X128098493Y-52940057D01*
X128098493Y-52940057D02*
X128050874Y-52892438D01*
X128050874Y-52892438D02*
X127955636Y-52844819D01*
X127955636Y-52844819D02*
X127717541Y-52844819D01*
X127717541Y-52844819D02*
X127574684Y-52892438D01*
X126574684Y-53749580D02*
X126622303Y-53797200D01*
X126622303Y-53797200D02*
X126765160Y-53844819D01*
X126765160Y-53844819D02*
X126860398Y-53844819D01*
X126860398Y-53844819D02*
X127003255Y-53797200D01*
X127003255Y-53797200D02*
X127098493Y-53701961D01*
X127098493Y-53701961D02*
X127146112Y-53606723D01*
X127146112Y-53606723D02*
X127193731Y-53416247D01*
X127193731Y-53416247D02*
X127193731Y-53273390D01*
X127193731Y-53273390D02*
X127146112Y-53082914D01*
X127146112Y-53082914D02*
X127098493Y-52987676D01*
X127098493Y-52987676D02*
X127003255Y-52892438D01*
X127003255Y-52892438D02*
X126860398Y-52844819D01*
X126860398Y-52844819D02*
X126765160Y-52844819D01*
X126765160Y-52844819D02*
X126622303Y-52892438D01*
X126622303Y-52892438D02*
X126574684Y-52940057D01*
X125669922Y-53844819D02*
X126146112Y-53844819D01*
X126146112Y-53844819D02*
X126146112Y-52844819D01*
X98189921Y-52844819D02*
X97570874Y-52844819D01*
X97570874Y-52844819D02*
X97904207Y-53225771D01*
X97904207Y-53225771D02*
X97761350Y-53225771D01*
X97761350Y-53225771D02*
X97666112Y-53273390D01*
X97666112Y-53273390D02*
X97618493Y-53321009D01*
X97618493Y-53321009D02*
X97570874Y-53416247D01*
X97570874Y-53416247D02*
X97570874Y-53654342D01*
X97570874Y-53654342D02*
X97618493Y-53749580D01*
X97618493Y-53749580D02*
X97666112Y-53797200D01*
X97666112Y-53797200D02*
X97761350Y-53844819D01*
X97761350Y-53844819D02*
X98047064Y-53844819D01*
X98047064Y-53844819D02*
X98142302Y-53797200D01*
X98142302Y-53797200D02*
X98189921Y-53749580D01*
X97142302Y-53749580D02*
X97094683Y-53797200D01*
X97094683Y-53797200D02*
X97142302Y-53844819D01*
X97142302Y-53844819D02*
X97189921Y-53797200D01*
X97189921Y-53797200D02*
X97142302Y-53749580D01*
X97142302Y-53749580D02*
X97142302Y-53844819D01*
X96761350Y-52844819D02*
X96142303Y-52844819D01*
X96142303Y-52844819D02*
X96475636Y-53225771D01*
X96475636Y-53225771D02*
X96332779Y-53225771D01*
X96332779Y-53225771D02*
X96237541Y-53273390D01*
X96237541Y-53273390D02*
X96189922Y-53321009D01*
X96189922Y-53321009D02*
X96142303Y-53416247D01*
X96142303Y-53416247D02*
X96142303Y-53654342D01*
X96142303Y-53654342D02*
X96189922Y-53749580D01*
X96189922Y-53749580D02*
X96237541Y-53797200D01*
X96237541Y-53797200D02*
X96332779Y-53844819D01*
X96332779Y-53844819D02*
X96618493Y-53844819D01*
X96618493Y-53844819D02*
X96713731Y-53797200D01*
X96713731Y-53797200D02*
X96761350Y-53749580D01*
X95856588Y-52844819D02*
X95523255Y-53844819D01*
X95523255Y-53844819D02*
X95189922Y-52844819D01*
X127860398Y-60639438D02*
X127955636Y-60591819D01*
X127955636Y-60591819D02*
X128098493Y-60591819D01*
X128098493Y-60591819D02*
X128241350Y-60639438D01*
X128241350Y-60639438D02*
X128336588Y-60734676D01*
X128336588Y-60734676D02*
X128384207Y-60829914D01*
X128384207Y-60829914D02*
X128431826Y-61020390D01*
X128431826Y-61020390D02*
X128431826Y-61163247D01*
X128431826Y-61163247D02*
X128384207Y-61353723D01*
X128384207Y-61353723D02*
X128336588Y-61448961D01*
X128336588Y-61448961D02*
X128241350Y-61544200D01*
X128241350Y-61544200D02*
X128098493Y-61591819D01*
X128098493Y-61591819D02*
X128003255Y-61591819D01*
X128003255Y-61591819D02*
X127860398Y-61544200D01*
X127860398Y-61544200D02*
X127812779Y-61496580D01*
X127812779Y-61496580D02*
X127812779Y-61163247D01*
X127812779Y-61163247D02*
X128003255Y-61163247D01*
X127384207Y-61591819D02*
X127384207Y-60591819D01*
X127384207Y-60591819D02*
X126812779Y-61591819D01*
X126812779Y-61591819D02*
X126812779Y-60591819D01*
X126336588Y-61591819D02*
X126336588Y-60591819D01*
X126336588Y-60591819D02*
X126098493Y-60591819D01*
X126098493Y-60591819D02*
X125955636Y-60639438D01*
X125955636Y-60639438D02*
X125860398Y-60734676D01*
X125860398Y-60734676D02*
X125812779Y-60829914D01*
X125812779Y-60829914D02*
X125765160Y-61020390D01*
X125765160Y-61020390D02*
X125765160Y-61163247D01*
X125765160Y-61163247D02*
X125812779Y-61353723D01*
X125812779Y-61353723D02*
X125860398Y-61448961D01*
X125860398Y-61448961D02*
X125955636Y-61544200D01*
X125955636Y-61544200D02*
X126098493Y-61591819D01*
X126098493Y-61591819D02*
X126336588Y-61591819D01*
X149529922Y-55257819D02*
X150006112Y-55257819D01*
X150006112Y-55257819D02*
X150053731Y-55734009D01*
X150053731Y-55734009D02*
X150006112Y-55686390D01*
X150006112Y-55686390D02*
X149910874Y-55638771D01*
X149910874Y-55638771D02*
X149672779Y-55638771D01*
X149672779Y-55638771D02*
X149577541Y-55686390D01*
X149577541Y-55686390D02*
X149529922Y-55734009D01*
X149529922Y-55734009D02*
X149482303Y-55829247D01*
X149482303Y-55829247D02*
X149482303Y-56067342D01*
X149482303Y-56067342D02*
X149529922Y-56162580D01*
X149529922Y-56162580D02*
X149577541Y-56210200D01*
X149577541Y-56210200D02*
X149672779Y-56257819D01*
X149672779Y-56257819D02*
X149910874Y-56257819D01*
X149910874Y-56257819D02*
X150006112Y-56210200D01*
X150006112Y-56210200D02*
X150053731Y-56162580D01*
X149196588Y-55257819D02*
X148863255Y-56257819D01*
X148863255Y-56257819D02*
X148529922Y-55257819D01*
X113429921Y-52844819D02*
X112810874Y-52844819D01*
X112810874Y-52844819D02*
X113144207Y-53225771D01*
X113144207Y-53225771D02*
X113001350Y-53225771D01*
X113001350Y-53225771D02*
X112906112Y-53273390D01*
X112906112Y-53273390D02*
X112858493Y-53321009D01*
X112858493Y-53321009D02*
X112810874Y-53416247D01*
X112810874Y-53416247D02*
X112810874Y-53654342D01*
X112810874Y-53654342D02*
X112858493Y-53749580D01*
X112858493Y-53749580D02*
X112906112Y-53797200D01*
X112906112Y-53797200D02*
X113001350Y-53844819D01*
X113001350Y-53844819D02*
X113287064Y-53844819D01*
X113287064Y-53844819D02*
X113382302Y-53797200D01*
X113382302Y-53797200D02*
X113429921Y-53749580D01*
X112382302Y-53749580D02*
X112334683Y-53797200D01*
X112334683Y-53797200D02*
X112382302Y-53844819D01*
X112382302Y-53844819D02*
X112429921Y-53797200D01*
X112429921Y-53797200D02*
X112382302Y-53749580D01*
X112382302Y-53749580D02*
X112382302Y-53844819D01*
X112001350Y-52844819D02*
X111382303Y-52844819D01*
X111382303Y-52844819D02*
X111715636Y-53225771D01*
X111715636Y-53225771D02*
X111572779Y-53225771D01*
X111572779Y-53225771D02*
X111477541Y-53273390D01*
X111477541Y-53273390D02*
X111429922Y-53321009D01*
X111429922Y-53321009D02*
X111382303Y-53416247D01*
X111382303Y-53416247D02*
X111382303Y-53654342D01*
X111382303Y-53654342D02*
X111429922Y-53749580D01*
X111429922Y-53749580D02*
X111477541Y-53797200D01*
X111477541Y-53797200D02*
X111572779Y-53844819D01*
X111572779Y-53844819D02*
X111858493Y-53844819D01*
X111858493Y-53844819D02*
X111953731Y-53797200D01*
X111953731Y-53797200D02*
X112001350Y-53749580D01*
X111096588Y-52844819D02*
X110763255Y-53844819D01*
X110763255Y-53844819D02*
X110429922Y-52844819D01*
X161054921Y-52844819D02*
X160435874Y-52844819D01*
X160435874Y-52844819D02*
X160769207Y-53225771D01*
X160769207Y-53225771D02*
X160626350Y-53225771D01*
X160626350Y-53225771D02*
X160531112Y-53273390D01*
X160531112Y-53273390D02*
X160483493Y-53321009D01*
X160483493Y-53321009D02*
X160435874Y-53416247D01*
X160435874Y-53416247D02*
X160435874Y-53654342D01*
X160435874Y-53654342D02*
X160483493Y-53749580D01*
X160483493Y-53749580D02*
X160531112Y-53797200D01*
X160531112Y-53797200D02*
X160626350Y-53844819D01*
X160626350Y-53844819D02*
X160912064Y-53844819D01*
X160912064Y-53844819D02*
X161007302Y-53797200D01*
X161007302Y-53797200D02*
X161054921Y-53749580D01*
X160007302Y-53749580D02*
X159959683Y-53797200D01*
X159959683Y-53797200D02*
X160007302Y-53844819D01*
X160007302Y-53844819D02*
X160054921Y-53797200D01*
X160054921Y-53797200D02*
X160007302Y-53749580D01*
X160007302Y-53749580D02*
X160007302Y-53844819D01*
X159626350Y-52844819D02*
X159007303Y-52844819D01*
X159007303Y-52844819D02*
X159340636Y-53225771D01*
X159340636Y-53225771D02*
X159197779Y-53225771D01*
X159197779Y-53225771D02*
X159102541Y-53273390D01*
X159102541Y-53273390D02*
X159054922Y-53321009D01*
X159054922Y-53321009D02*
X159007303Y-53416247D01*
X159007303Y-53416247D02*
X159007303Y-53654342D01*
X159007303Y-53654342D02*
X159054922Y-53749580D01*
X159054922Y-53749580D02*
X159102541Y-53797200D01*
X159102541Y-53797200D02*
X159197779Y-53844819D01*
X159197779Y-53844819D02*
X159483493Y-53844819D01*
X159483493Y-53844819D02*
X159578731Y-53797200D01*
X159578731Y-53797200D02*
X159626350Y-53749580D01*
X158721588Y-52844819D02*
X158388255Y-53844819D01*
X158388255Y-53844819D02*
X158054922Y-52844819D01*
X97713731Y-63830200D02*
X97570874Y-63877819D01*
X97570874Y-63877819D02*
X97332779Y-63877819D01*
X97332779Y-63877819D02*
X97237541Y-63830200D01*
X97237541Y-63830200D02*
X97189922Y-63782580D01*
X97189922Y-63782580D02*
X97142303Y-63687342D01*
X97142303Y-63687342D02*
X97142303Y-63592104D01*
X97142303Y-63592104D02*
X97189922Y-63496866D01*
X97189922Y-63496866D02*
X97237541Y-63449247D01*
X97237541Y-63449247D02*
X97332779Y-63401628D01*
X97332779Y-63401628D02*
X97523255Y-63354009D01*
X97523255Y-63354009D02*
X97618493Y-63306390D01*
X97618493Y-63306390D02*
X97666112Y-63258771D01*
X97666112Y-63258771D02*
X97713731Y-63163533D01*
X97713731Y-63163533D02*
X97713731Y-63068295D01*
X97713731Y-63068295D02*
X97666112Y-62973057D01*
X97666112Y-62973057D02*
X97618493Y-62925438D01*
X97618493Y-62925438D02*
X97523255Y-62877819D01*
X97523255Y-62877819D02*
X97285160Y-62877819D01*
X97285160Y-62877819D02*
X97142303Y-62925438D01*
X96713731Y-63877819D02*
X96713731Y-62877819D01*
X96713731Y-62877819D02*
X96475636Y-62877819D01*
X96475636Y-62877819D02*
X96332779Y-62925438D01*
X96332779Y-62925438D02*
X96237541Y-63020676D01*
X96237541Y-63020676D02*
X96189922Y-63115914D01*
X96189922Y-63115914D02*
X96142303Y-63306390D01*
X96142303Y-63306390D02*
X96142303Y-63449247D01*
X96142303Y-63449247D02*
X96189922Y-63639723D01*
X96189922Y-63639723D02*
X96237541Y-63734961D01*
X96237541Y-63734961D02*
X96332779Y-63830200D01*
X96332779Y-63830200D02*
X96475636Y-63877819D01*
X96475636Y-63877819D02*
X96713731Y-63877819D01*
X95761350Y-63592104D02*
X95285160Y-63592104D01*
X95856588Y-63877819D02*
X95523255Y-62877819D01*
X95523255Y-62877819D02*
X95189922Y-63877819D01*
X112953731Y-63830200D02*
X112810874Y-63877819D01*
X112810874Y-63877819D02*
X112572779Y-63877819D01*
X112572779Y-63877819D02*
X112477541Y-63830200D01*
X112477541Y-63830200D02*
X112429922Y-63782580D01*
X112429922Y-63782580D02*
X112382303Y-63687342D01*
X112382303Y-63687342D02*
X112382303Y-63592104D01*
X112382303Y-63592104D02*
X112429922Y-63496866D01*
X112429922Y-63496866D02*
X112477541Y-63449247D01*
X112477541Y-63449247D02*
X112572779Y-63401628D01*
X112572779Y-63401628D02*
X112763255Y-63354009D01*
X112763255Y-63354009D02*
X112858493Y-63306390D01*
X112858493Y-63306390D02*
X112906112Y-63258771D01*
X112906112Y-63258771D02*
X112953731Y-63163533D01*
X112953731Y-63163533D02*
X112953731Y-63068295D01*
X112953731Y-63068295D02*
X112906112Y-62973057D01*
X112906112Y-62973057D02*
X112858493Y-62925438D01*
X112858493Y-62925438D02*
X112763255Y-62877819D01*
X112763255Y-62877819D02*
X112525160Y-62877819D01*
X112525160Y-62877819D02*
X112382303Y-62925438D01*
X111953731Y-63877819D02*
X111953731Y-62877819D01*
X111953731Y-62877819D02*
X111715636Y-62877819D01*
X111715636Y-62877819D02*
X111572779Y-62925438D01*
X111572779Y-62925438D02*
X111477541Y-63020676D01*
X111477541Y-63020676D02*
X111429922Y-63115914D01*
X111429922Y-63115914D02*
X111382303Y-63306390D01*
X111382303Y-63306390D02*
X111382303Y-63449247D01*
X111382303Y-63449247D02*
X111429922Y-63639723D01*
X111429922Y-63639723D02*
X111477541Y-63734961D01*
X111477541Y-63734961D02*
X111572779Y-63830200D01*
X111572779Y-63830200D02*
X111715636Y-63877819D01*
X111715636Y-63877819D02*
X111953731Y-63877819D01*
X111001350Y-63592104D02*
X110525160Y-63592104D01*
X111096588Y-63877819D02*
X110763255Y-62877819D01*
X110763255Y-62877819D02*
X110429922Y-63877819D01*
X105000398Y-57845438D02*
X105095636Y-57797819D01*
X105095636Y-57797819D02*
X105238493Y-57797819D01*
X105238493Y-57797819D02*
X105381350Y-57845438D01*
X105381350Y-57845438D02*
X105476588Y-57940676D01*
X105476588Y-57940676D02*
X105524207Y-58035914D01*
X105524207Y-58035914D02*
X105571826Y-58226390D01*
X105571826Y-58226390D02*
X105571826Y-58369247D01*
X105571826Y-58369247D02*
X105524207Y-58559723D01*
X105524207Y-58559723D02*
X105476588Y-58654961D01*
X105476588Y-58654961D02*
X105381350Y-58750200D01*
X105381350Y-58750200D02*
X105238493Y-58797819D01*
X105238493Y-58797819D02*
X105143255Y-58797819D01*
X105143255Y-58797819D02*
X105000398Y-58750200D01*
X105000398Y-58750200D02*
X104952779Y-58702580D01*
X104952779Y-58702580D02*
X104952779Y-58369247D01*
X104952779Y-58369247D02*
X105143255Y-58369247D01*
X104524207Y-58797819D02*
X104524207Y-57797819D01*
X104524207Y-57797819D02*
X103952779Y-58797819D01*
X103952779Y-58797819D02*
X103952779Y-57797819D01*
X103476588Y-58797819D02*
X103476588Y-57797819D01*
X103476588Y-57797819D02*
X103238493Y-57797819D01*
X103238493Y-57797819D02*
X103095636Y-57845438D01*
X103095636Y-57845438D02*
X103000398Y-57940676D01*
X103000398Y-57940676D02*
X102952779Y-58035914D01*
X102952779Y-58035914D02*
X102905160Y-58226390D01*
X102905160Y-58226390D02*
X102905160Y-58369247D01*
X102905160Y-58369247D02*
X102952779Y-58559723D01*
X102952779Y-58559723D02*
X103000398Y-58654961D01*
X103000398Y-58654961D02*
X103095636Y-58750200D01*
X103095636Y-58750200D02*
X103238493Y-58797819D01*
X103238493Y-58797819D02*
X103476588Y-58797819D01*
X103524207Y-55257819D02*
X102857541Y-56257819D01*
X102857541Y-55257819D02*
X103524207Y-56257819D01*
X112620398Y-57845438D02*
X112715636Y-57797819D01*
X112715636Y-57797819D02*
X112858493Y-57797819D01*
X112858493Y-57797819D02*
X113001350Y-57845438D01*
X113001350Y-57845438D02*
X113096588Y-57940676D01*
X113096588Y-57940676D02*
X113144207Y-58035914D01*
X113144207Y-58035914D02*
X113191826Y-58226390D01*
X113191826Y-58226390D02*
X113191826Y-58369247D01*
X113191826Y-58369247D02*
X113144207Y-58559723D01*
X113144207Y-58559723D02*
X113096588Y-58654961D01*
X113096588Y-58654961D02*
X113001350Y-58750200D01*
X113001350Y-58750200D02*
X112858493Y-58797819D01*
X112858493Y-58797819D02*
X112763255Y-58797819D01*
X112763255Y-58797819D02*
X112620398Y-58750200D01*
X112620398Y-58750200D02*
X112572779Y-58702580D01*
X112572779Y-58702580D02*
X112572779Y-58369247D01*
X112572779Y-58369247D02*
X112763255Y-58369247D01*
X112144207Y-58797819D02*
X112144207Y-57797819D01*
X112144207Y-57797819D02*
X111572779Y-58797819D01*
X111572779Y-58797819D02*
X111572779Y-57797819D01*
X111096588Y-58797819D02*
X111096588Y-57797819D01*
X111096588Y-57797819D02*
X110858493Y-57797819D01*
X110858493Y-57797819D02*
X110715636Y-57845438D01*
X110715636Y-57845438D02*
X110620398Y-57940676D01*
X110620398Y-57940676D02*
X110572779Y-58035914D01*
X110572779Y-58035914D02*
X110525160Y-58226390D01*
X110525160Y-58226390D02*
X110525160Y-58369247D01*
X110525160Y-58369247D02*
X110572779Y-58559723D01*
X110572779Y-58559723D02*
X110620398Y-58654961D01*
X110620398Y-58654961D02*
X110715636Y-58750200D01*
X110715636Y-58750200D02*
X110858493Y-58797819D01*
X110858493Y-58797819D02*
X111096588Y-58797819D01*
X128669921Y-57416819D02*
X128050874Y-57416819D01*
X128050874Y-57416819D02*
X128384207Y-57797771D01*
X128384207Y-57797771D02*
X128241350Y-57797771D01*
X128241350Y-57797771D02*
X128146112Y-57845390D01*
X128146112Y-57845390D02*
X128098493Y-57893009D01*
X128098493Y-57893009D02*
X128050874Y-57988247D01*
X128050874Y-57988247D02*
X128050874Y-58226342D01*
X128050874Y-58226342D02*
X128098493Y-58321580D01*
X128098493Y-58321580D02*
X128146112Y-58369200D01*
X128146112Y-58369200D02*
X128241350Y-58416819D01*
X128241350Y-58416819D02*
X128527064Y-58416819D01*
X128527064Y-58416819D02*
X128622302Y-58369200D01*
X128622302Y-58369200D02*
X128669921Y-58321580D01*
X127622302Y-58321580D02*
X127574683Y-58369200D01*
X127574683Y-58369200D02*
X127622302Y-58416819D01*
X127622302Y-58416819D02*
X127669921Y-58369200D01*
X127669921Y-58369200D02*
X127622302Y-58321580D01*
X127622302Y-58321580D02*
X127622302Y-58416819D01*
X127241350Y-57416819D02*
X126622303Y-57416819D01*
X126622303Y-57416819D02*
X126955636Y-57797771D01*
X126955636Y-57797771D02*
X126812779Y-57797771D01*
X126812779Y-57797771D02*
X126717541Y-57845390D01*
X126717541Y-57845390D02*
X126669922Y-57893009D01*
X126669922Y-57893009D02*
X126622303Y-57988247D01*
X126622303Y-57988247D02*
X126622303Y-58226342D01*
X126622303Y-58226342D02*
X126669922Y-58321580D01*
X126669922Y-58321580D02*
X126717541Y-58369200D01*
X126717541Y-58369200D02*
X126812779Y-58416819D01*
X126812779Y-58416819D02*
X127098493Y-58416819D01*
X127098493Y-58416819D02*
X127193731Y-58369200D01*
X127193731Y-58369200D02*
X127241350Y-58321580D01*
X126336588Y-57416819D02*
X126003255Y-58416819D01*
X126003255Y-58416819D02*
X125669922Y-57416819D01*
X111429922Y-55257819D02*
X111906112Y-55257819D01*
X111906112Y-55257819D02*
X111953731Y-55734009D01*
X111953731Y-55734009D02*
X111906112Y-55686390D01*
X111906112Y-55686390D02*
X111810874Y-55638771D01*
X111810874Y-55638771D02*
X111572779Y-55638771D01*
X111572779Y-55638771D02*
X111477541Y-55686390D01*
X111477541Y-55686390D02*
X111429922Y-55734009D01*
X111429922Y-55734009D02*
X111382303Y-55829247D01*
X111382303Y-55829247D02*
X111382303Y-56067342D01*
X111382303Y-56067342D02*
X111429922Y-56162580D01*
X111429922Y-56162580D02*
X111477541Y-56210200D01*
X111477541Y-56210200D02*
X111572779Y-56257819D01*
X111572779Y-56257819D02*
X111810874Y-56257819D01*
X111810874Y-56257819D02*
X111906112Y-56210200D01*
X111906112Y-56210200D02*
X111953731Y-56162580D01*
X111096588Y-55257819D02*
X110763255Y-56257819D01*
X110763255Y-56257819D02*
X110429922Y-55257819D01*
X105333731Y-63830200D02*
X105190874Y-63877819D01*
X105190874Y-63877819D02*
X104952779Y-63877819D01*
X104952779Y-63877819D02*
X104857541Y-63830200D01*
X104857541Y-63830200D02*
X104809922Y-63782580D01*
X104809922Y-63782580D02*
X104762303Y-63687342D01*
X104762303Y-63687342D02*
X104762303Y-63592104D01*
X104762303Y-63592104D02*
X104809922Y-63496866D01*
X104809922Y-63496866D02*
X104857541Y-63449247D01*
X104857541Y-63449247D02*
X104952779Y-63401628D01*
X104952779Y-63401628D02*
X105143255Y-63354009D01*
X105143255Y-63354009D02*
X105238493Y-63306390D01*
X105238493Y-63306390D02*
X105286112Y-63258771D01*
X105286112Y-63258771D02*
X105333731Y-63163533D01*
X105333731Y-63163533D02*
X105333731Y-63068295D01*
X105333731Y-63068295D02*
X105286112Y-62973057D01*
X105286112Y-62973057D02*
X105238493Y-62925438D01*
X105238493Y-62925438D02*
X105143255Y-62877819D01*
X105143255Y-62877819D02*
X104905160Y-62877819D01*
X104905160Y-62877819D02*
X104762303Y-62925438D01*
X104333731Y-63877819D02*
X104333731Y-62877819D01*
X104333731Y-62877819D02*
X104095636Y-62877819D01*
X104095636Y-62877819D02*
X103952779Y-62925438D01*
X103952779Y-62925438D02*
X103857541Y-63020676D01*
X103857541Y-63020676D02*
X103809922Y-63115914D01*
X103809922Y-63115914D02*
X103762303Y-63306390D01*
X103762303Y-63306390D02*
X103762303Y-63449247D01*
X103762303Y-63449247D02*
X103809922Y-63639723D01*
X103809922Y-63639723D02*
X103857541Y-63734961D01*
X103857541Y-63734961D02*
X103952779Y-63830200D01*
X103952779Y-63830200D02*
X104095636Y-63877819D01*
X104095636Y-63877819D02*
X104333731Y-63877819D01*
X103381350Y-63592104D02*
X102905160Y-63592104D01*
X103476588Y-63877819D02*
X103143255Y-62877819D01*
X103143255Y-62877819D02*
X102809922Y-63877819D01*
X96189922Y-55257819D02*
X96666112Y-55257819D01*
X96666112Y-55257819D02*
X96713731Y-55734009D01*
X96713731Y-55734009D02*
X96666112Y-55686390D01*
X96666112Y-55686390D02*
X96570874Y-55638771D01*
X96570874Y-55638771D02*
X96332779Y-55638771D01*
X96332779Y-55638771D02*
X96237541Y-55686390D01*
X96237541Y-55686390D02*
X96189922Y-55734009D01*
X96189922Y-55734009D02*
X96142303Y-55829247D01*
X96142303Y-55829247D02*
X96142303Y-56067342D01*
X96142303Y-56067342D02*
X96189922Y-56162580D01*
X96189922Y-56162580D02*
X96237541Y-56210200D01*
X96237541Y-56210200D02*
X96332779Y-56257819D01*
X96332779Y-56257819D02*
X96570874Y-56257819D01*
X96570874Y-56257819D02*
X96666112Y-56210200D01*
X96666112Y-56210200D02*
X96713731Y-56162580D01*
X95856588Y-55257819D02*
X95523255Y-56257819D01*
X95523255Y-56257819D02*
X95189922Y-55257819D01*
X150196588Y-62877819D02*
X149577541Y-62877819D01*
X149577541Y-62877819D02*
X149910874Y-63258771D01*
X149910874Y-63258771D02*
X149768017Y-63258771D01*
X149768017Y-63258771D02*
X149672779Y-63306390D01*
X149672779Y-63306390D02*
X149625160Y-63354009D01*
X149625160Y-63354009D02*
X149577541Y-63449247D01*
X149577541Y-63449247D02*
X149577541Y-63687342D01*
X149577541Y-63687342D02*
X149625160Y-63782580D01*
X149625160Y-63782580D02*
X149672779Y-63830200D01*
X149672779Y-63830200D02*
X149768017Y-63877819D01*
X149768017Y-63877819D02*
X150053731Y-63877819D01*
X150053731Y-63877819D02*
X150148969Y-63830200D01*
X150148969Y-63830200D02*
X150196588Y-63782580D01*
X149244207Y-62877819D02*
X148625160Y-62877819D01*
X148625160Y-62877819D02*
X148958493Y-63258771D01*
X148958493Y-63258771D02*
X148815636Y-63258771D01*
X148815636Y-63258771D02*
X148720398Y-63306390D01*
X148720398Y-63306390D02*
X148672779Y-63354009D01*
X148672779Y-63354009D02*
X148625160Y-63449247D01*
X148625160Y-63449247D02*
X148625160Y-63687342D01*
X148625160Y-63687342D02*
X148672779Y-63782580D01*
X148672779Y-63782580D02*
X148720398Y-63830200D01*
X148720398Y-63830200D02*
X148815636Y-63877819D01*
X148815636Y-63877819D02*
X149101350Y-63877819D01*
X149101350Y-63877819D02*
X149196588Y-63830200D01*
X149196588Y-63830200D02*
X149244207Y-63782580D01*
X160245398Y-60385438D02*
X160340636Y-60337819D01*
X160340636Y-60337819D02*
X160483493Y-60337819D01*
X160483493Y-60337819D02*
X160626350Y-60385438D01*
X160626350Y-60385438D02*
X160721588Y-60480676D01*
X160721588Y-60480676D02*
X160769207Y-60575914D01*
X160769207Y-60575914D02*
X160816826Y-60766390D01*
X160816826Y-60766390D02*
X160816826Y-60909247D01*
X160816826Y-60909247D02*
X160769207Y-61099723D01*
X160769207Y-61099723D02*
X160721588Y-61194961D01*
X160721588Y-61194961D02*
X160626350Y-61290200D01*
X160626350Y-61290200D02*
X160483493Y-61337819D01*
X160483493Y-61337819D02*
X160388255Y-61337819D01*
X160388255Y-61337819D02*
X160245398Y-61290200D01*
X160245398Y-61290200D02*
X160197779Y-61242580D01*
X160197779Y-61242580D02*
X160197779Y-60909247D01*
X160197779Y-60909247D02*
X160388255Y-60909247D01*
X159769207Y-61337819D02*
X159769207Y-60337819D01*
X159769207Y-60337819D02*
X159197779Y-61337819D01*
X159197779Y-61337819D02*
X159197779Y-60337819D01*
X158721588Y-61337819D02*
X158721588Y-60337819D01*
X158721588Y-60337819D02*
X158483493Y-60337819D01*
X158483493Y-60337819D02*
X158340636Y-60385438D01*
X158340636Y-60385438D02*
X158245398Y-60480676D01*
X158245398Y-60480676D02*
X158197779Y-60575914D01*
X158197779Y-60575914D02*
X158150160Y-60766390D01*
X158150160Y-60766390D02*
X158150160Y-60909247D01*
X158150160Y-60909247D02*
X158197779Y-61099723D01*
X158197779Y-61099723D02*
X158245398Y-61194961D01*
X158245398Y-61194961D02*
X158340636Y-61290200D01*
X158340636Y-61290200D02*
X158483493Y-61337819D01*
X158483493Y-61337819D02*
X158721588Y-61337819D01*
X97380398Y-57845438D02*
X97475636Y-57797819D01*
X97475636Y-57797819D02*
X97618493Y-57797819D01*
X97618493Y-57797819D02*
X97761350Y-57845438D01*
X97761350Y-57845438D02*
X97856588Y-57940676D01*
X97856588Y-57940676D02*
X97904207Y-58035914D01*
X97904207Y-58035914D02*
X97951826Y-58226390D01*
X97951826Y-58226390D02*
X97951826Y-58369247D01*
X97951826Y-58369247D02*
X97904207Y-58559723D01*
X97904207Y-58559723D02*
X97856588Y-58654961D01*
X97856588Y-58654961D02*
X97761350Y-58750200D01*
X97761350Y-58750200D02*
X97618493Y-58797819D01*
X97618493Y-58797819D02*
X97523255Y-58797819D01*
X97523255Y-58797819D02*
X97380398Y-58750200D01*
X97380398Y-58750200D02*
X97332779Y-58702580D01*
X97332779Y-58702580D02*
X97332779Y-58369247D01*
X97332779Y-58369247D02*
X97523255Y-58369247D01*
X96904207Y-58797819D02*
X96904207Y-57797819D01*
X96904207Y-57797819D02*
X96332779Y-58797819D01*
X96332779Y-58797819D02*
X96332779Y-57797819D01*
X95856588Y-58797819D02*
X95856588Y-57797819D01*
X95856588Y-57797819D02*
X95618493Y-57797819D01*
X95618493Y-57797819D02*
X95475636Y-57845438D01*
X95475636Y-57845438D02*
X95380398Y-57940676D01*
X95380398Y-57940676D02*
X95332779Y-58035914D01*
X95332779Y-58035914D02*
X95285160Y-58226390D01*
X95285160Y-58226390D02*
X95285160Y-58369247D01*
X95285160Y-58369247D02*
X95332779Y-58559723D01*
X95332779Y-58559723D02*
X95380398Y-58654961D01*
X95380398Y-58654961D02*
X95475636Y-58750200D01*
X95475636Y-58750200D02*
X95618493Y-58797819D01*
X95618493Y-58797819D02*
X95856588Y-58797819D01*
X159721588Y-55257819D02*
X159102541Y-55257819D01*
X159102541Y-55257819D02*
X159435874Y-55638771D01*
X159435874Y-55638771D02*
X159293017Y-55638771D01*
X159293017Y-55638771D02*
X159197779Y-55686390D01*
X159197779Y-55686390D02*
X159150160Y-55734009D01*
X159150160Y-55734009D02*
X159102541Y-55829247D01*
X159102541Y-55829247D02*
X159102541Y-56067342D01*
X159102541Y-56067342D02*
X159150160Y-56162580D01*
X159150160Y-56162580D02*
X159197779Y-56210200D01*
X159197779Y-56210200D02*
X159293017Y-56257819D01*
X159293017Y-56257819D02*
X159578731Y-56257819D01*
X159578731Y-56257819D02*
X159673969Y-56210200D01*
X159673969Y-56210200D02*
X159721588Y-56162580D01*
X158245398Y-55591152D02*
X158245398Y-56257819D01*
X158483493Y-55210200D02*
X158721588Y-55924485D01*
X158721588Y-55924485D02*
X158102541Y-55924485D01*
X103809922Y-52844819D02*
X104286112Y-52844819D01*
X104286112Y-52844819D02*
X104333731Y-53321009D01*
X104333731Y-53321009D02*
X104286112Y-53273390D01*
X104286112Y-53273390D02*
X104190874Y-53225771D01*
X104190874Y-53225771D02*
X103952779Y-53225771D01*
X103952779Y-53225771D02*
X103857541Y-53273390D01*
X103857541Y-53273390D02*
X103809922Y-53321009D01*
X103809922Y-53321009D02*
X103762303Y-53416247D01*
X103762303Y-53416247D02*
X103762303Y-53654342D01*
X103762303Y-53654342D02*
X103809922Y-53749580D01*
X103809922Y-53749580D02*
X103857541Y-53797200D01*
X103857541Y-53797200D02*
X103952779Y-53844819D01*
X103952779Y-53844819D02*
X104190874Y-53844819D01*
X104190874Y-53844819D02*
X104286112Y-53797200D01*
X104286112Y-53797200D02*
X104333731Y-53749580D01*
X103476588Y-52844819D02*
X103143255Y-53844819D01*
X103143255Y-53844819D02*
X102809922Y-52844819D01*
X126583887Y-115297009D02*
X126441030Y-115344628D01*
X126441030Y-115344628D02*
X126393411Y-115392247D01*
X126393411Y-115392247D02*
X126345792Y-115487485D01*
X126345792Y-115487485D02*
X126345792Y-115630342D01*
X126345792Y-115630342D02*
X126393411Y-115725580D01*
X126393411Y-115725580D02*
X126441030Y-115773200D01*
X126441030Y-115773200D02*
X126536268Y-115820819D01*
X126536268Y-115820819D02*
X126917220Y-115820819D01*
X126917220Y-115820819D02*
X126917220Y-114820819D01*
X126917220Y-114820819D02*
X126583887Y-114820819D01*
X126583887Y-114820819D02*
X126488649Y-114868438D01*
X126488649Y-114868438D02*
X126441030Y-114916057D01*
X126441030Y-114916057D02*
X126393411Y-115011295D01*
X126393411Y-115011295D02*
X126393411Y-115106533D01*
X126393411Y-115106533D02*
X126441030Y-115201771D01*
X126441030Y-115201771D02*
X126488649Y-115249390D01*
X126488649Y-115249390D02*
X126583887Y-115297009D01*
X126583887Y-115297009D02*
X126917220Y-115297009D01*
X125774363Y-115820819D02*
X125869601Y-115773200D01*
X125869601Y-115773200D02*
X125917220Y-115725580D01*
X125917220Y-115725580D02*
X125964839Y-115630342D01*
X125964839Y-115630342D02*
X125964839Y-115344628D01*
X125964839Y-115344628D02*
X125917220Y-115249390D01*
X125917220Y-115249390D02*
X125869601Y-115201771D01*
X125869601Y-115201771D02*
X125774363Y-115154152D01*
X125774363Y-115154152D02*
X125631506Y-115154152D01*
X125631506Y-115154152D02*
X125536268Y-115201771D01*
X125536268Y-115201771D02*
X125488649Y-115249390D01*
X125488649Y-115249390D02*
X125441030Y-115344628D01*
X125441030Y-115344628D02*
X125441030Y-115630342D01*
X125441030Y-115630342D02*
X125488649Y-115725580D01*
X125488649Y-115725580D02*
X125536268Y-115773200D01*
X125536268Y-115773200D02*
X125631506Y-115820819D01*
X125631506Y-115820819D02*
X125774363Y-115820819D01*
X125155315Y-115154152D02*
X124774363Y-115154152D01*
X125012458Y-114820819D02*
X125012458Y-115677961D01*
X125012458Y-115677961D02*
X124964839Y-115773200D01*
X124964839Y-115773200D02*
X124869601Y-115820819D01*
X124869601Y-115820819D02*
X124774363Y-115820819D01*
X124583886Y-115154152D02*
X124202934Y-115154152D01*
X124441029Y-114820819D02*
X124441029Y-115677961D01*
X124441029Y-115677961D02*
X124393410Y-115773200D01*
X124393410Y-115773200D02*
X124298172Y-115820819D01*
X124298172Y-115820819D02*
X124202934Y-115820819D01*
X123726743Y-115820819D02*
X123821981Y-115773200D01*
X123821981Y-115773200D02*
X123869600Y-115725580D01*
X123869600Y-115725580D02*
X123917219Y-115630342D01*
X123917219Y-115630342D02*
X123917219Y-115344628D01*
X123917219Y-115344628D02*
X123869600Y-115249390D01*
X123869600Y-115249390D02*
X123821981Y-115201771D01*
X123821981Y-115201771D02*
X123726743Y-115154152D01*
X123726743Y-115154152D02*
X123583886Y-115154152D01*
X123583886Y-115154152D02*
X123488648Y-115201771D01*
X123488648Y-115201771D02*
X123441029Y-115249390D01*
X123441029Y-115249390D02*
X123393410Y-115344628D01*
X123393410Y-115344628D02*
X123393410Y-115630342D01*
X123393410Y-115630342D02*
X123441029Y-115725580D01*
X123441029Y-115725580D02*
X123488648Y-115773200D01*
X123488648Y-115773200D02*
X123583886Y-115820819D01*
X123583886Y-115820819D02*
X123726743Y-115820819D01*
X122964838Y-115820819D02*
X122964838Y-115154152D01*
X122964838Y-115249390D02*
X122917219Y-115201771D01*
X122917219Y-115201771D02*
X122821981Y-115154152D01*
X122821981Y-115154152D02*
X122679124Y-115154152D01*
X122679124Y-115154152D02*
X122583886Y-115201771D01*
X122583886Y-115201771D02*
X122536267Y-115297009D01*
X122536267Y-115297009D02*
X122536267Y-115820819D01*
X122536267Y-115297009D02*
X122488648Y-115201771D01*
X122488648Y-115201771D02*
X122393410Y-115154152D01*
X122393410Y-115154152D02*
X122250553Y-115154152D01*
X122250553Y-115154152D02*
X122155314Y-115201771D01*
X122155314Y-115201771D02*
X122107695Y-115297009D01*
X122107695Y-115297009D02*
X122107695Y-115820819D01*
X120393410Y-115820819D02*
X120869600Y-115820819D01*
X120869600Y-115820819D02*
X120869600Y-114820819D01*
X119631505Y-115820819D02*
X119631505Y-115297009D01*
X119631505Y-115297009D02*
X119679124Y-115201771D01*
X119679124Y-115201771D02*
X119774362Y-115154152D01*
X119774362Y-115154152D02*
X119964838Y-115154152D01*
X119964838Y-115154152D02*
X120060076Y-115201771D01*
X119631505Y-115773200D02*
X119726743Y-115820819D01*
X119726743Y-115820819D02*
X119964838Y-115820819D01*
X119964838Y-115820819D02*
X120060076Y-115773200D01*
X120060076Y-115773200D02*
X120107695Y-115677961D01*
X120107695Y-115677961D02*
X120107695Y-115582723D01*
X120107695Y-115582723D02*
X120060076Y-115487485D01*
X120060076Y-115487485D02*
X119964838Y-115439866D01*
X119964838Y-115439866D02*
X119726743Y-115439866D01*
X119726743Y-115439866D02*
X119631505Y-115392247D01*
X119250552Y-115154152D02*
X119012457Y-115820819D01*
X118774362Y-115154152D02*
X119012457Y-115820819D01*
X119012457Y-115820819D02*
X119107695Y-116058914D01*
X119107695Y-116058914D02*
X119155314Y-116106533D01*
X119155314Y-116106533D02*
X119250552Y-116154152D01*
X118012457Y-115773200D02*
X118107695Y-115820819D01*
X118107695Y-115820819D02*
X118298171Y-115820819D01*
X118298171Y-115820819D02*
X118393409Y-115773200D01*
X118393409Y-115773200D02*
X118441028Y-115677961D01*
X118441028Y-115677961D02*
X118441028Y-115297009D01*
X118441028Y-115297009D02*
X118393409Y-115201771D01*
X118393409Y-115201771D02*
X118298171Y-115154152D01*
X118298171Y-115154152D02*
X118107695Y-115154152D01*
X118107695Y-115154152D02*
X118012457Y-115201771D01*
X118012457Y-115201771D02*
X117964838Y-115297009D01*
X117964838Y-115297009D02*
X117964838Y-115392247D01*
X117964838Y-115392247D02*
X118441028Y-115487485D01*
X117536266Y-115820819D02*
X117536266Y-115154152D01*
X117536266Y-115344628D02*
X117488647Y-115249390D01*
X117488647Y-115249390D02*
X117441028Y-115201771D01*
X117441028Y-115201771D02*
X117345790Y-115154152D01*
X117345790Y-115154152D02*
X117250552Y-115154152D01*
X112906112Y-61290200D02*
X112763255Y-61337819D01*
X112763255Y-61337819D02*
X112525160Y-61337819D01*
X112525160Y-61337819D02*
X112429922Y-61290200D01*
X112429922Y-61290200D02*
X112382303Y-61242580D01*
X112382303Y-61242580D02*
X112334684Y-61147342D01*
X112334684Y-61147342D02*
X112334684Y-61052104D01*
X112334684Y-61052104D02*
X112382303Y-60956866D01*
X112382303Y-60956866D02*
X112429922Y-60909247D01*
X112429922Y-60909247D02*
X112525160Y-60861628D01*
X112525160Y-60861628D02*
X112715636Y-60814009D01*
X112715636Y-60814009D02*
X112810874Y-60766390D01*
X112810874Y-60766390D02*
X112858493Y-60718771D01*
X112858493Y-60718771D02*
X112906112Y-60623533D01*
X112906112Y-60623533D02*
X112906112Y-60528295D01*
X112906112Y-60528295D02*
X112858493Y-60433057D01*
X112858493Y-60433057D02*
X112810874Y-60385438D01*
X112810874Y-60385438D02*
X112715636Y-60337819D01*
X112715636Y-60337819D02*
X112477541Y-60337819D01*
X112477541Y-60337819D02*
X112334684Y-60385438D01*
X111334684Y-61242580D02*
X111382303Y-61290200D01*
X111382303Y-61290200D02*
X111525160Y-61337819D01*
X111525160Y-61337819D02*
X111620398Y-61337819D01*
X111620398Y-61337819D02*
X111763255Y-61290200D01*
X111763255Y-61290200D02*
X111858493Y-61194961D01*
X111858493Y-61194961D02*
X111906112Y-61099723D01*
X111906112Y-61099723D02*
X111953731Y-60909247D01*
X111953731Y-60909247D02*
X111953731Y-60766390D01*
X111953731Y-60766390D02*
X111906112Y-60575914D01*
X111906112Y-60575914D02*
X111858493Y-60480676D01*
X111858493Y-60480676D02*
X111763255Y-60385438D01*
X111763255Y-60385438D02*
X111620398Y-60337819D01*
X111620398Y-60337819D02*
X111525160Y-60337819D01*
X111525160Y-60337819D02*
X111382303Y-60385438D01*
X111382303Y-60385438D02*
X111334684Y-60433057D01*
X110429922Y-61337819D02*
X110906112Y-61337819D01*
X110906112Y-61337819D02*
X110906112Y-60337819D01*
X159054922Y-57797819D02*
X159531112Y-57797819D01*
X159531112Y-57797819D02*
X159578731Y-58274009D01*
X159578731Y-58274009D02*
X159531112Y-58226390D01*
X159531112Y-58226390D02*
X159435874Y-58178771D01*
X159435874Y-58178771D02*
X159197779Y-58178771D01*
X159197779Y-58178771D02*
X159102541Y-58226390D01*
X159102541Y-58226390D02*
X159054922Y-58274009D01*
X159054922Y-58274009D02*
X159007303Y-58369247D01*
X159007303Y-58369247D02*
X159007303Y-58607342D01*
X159007303Y-58607342D02*
X159054922Y-58702580D01*
X159054922Y-58702580D02*
X159102541Y-58750200D01*
X159102541Y-58750200D02*
X159197779Y-58797819D01*
X159197779Y-58797819D02*
X159435874Y-58797819D01*
X159435874Y-58797819D02*
X159531112Y-58750200D01*
X159531112Y-58750200D02*
X159578731Y-58702580D01*
X158721588Y-57797819D02*
X158388255Y-58797819D01*
X158388255Y-58797819D02*
X158054922Y-57797819D01*
X105286112Y-61290200D02*
X105143255Y-61337819D01*
X105143255Y-61337819D02*
X104905160Y-61337819D01*
X104905160Y-61337819D02*
X104809922Y-61290200D01*
X104809922Y-61290200D02*
X104762303Y-61242580D01*
X104762303Y-61242580D02*
X104714684Y-61147342D01*
X104714684Y-61147342D02*
X104714684Y-61052104D01*
X104714684Y-61052104D02*
X104762303Y-60956866D01*
X104762303Y-60956866D02*
X104809922Y-60909247D01*
X104809922Y-60909247D02*
X104905160Y-60861628D01*
X104905160Y-60861628D02*
X105095636Y-60814009D01*
X105095636Y-60814009D02*
X105190874Y-60766390D01*
X105190874Y-60766390D02*
X105238493Y-60718771D01*
X105238493Y-60718771D02*
X105286112Y-60623533D01*
X105286112Y-60623533D02*
X105286112Y-60528295D01*
X105286112Y-60528295D02*
X105238493Y-60433057D01*
X105238493Y-60433057D02*
X105190874Y-60385438D01*
X105190874Y-60385438D02*
X105095636Y-60337819D01*
X105095636Y-60337819D02*
X104857541Y-60337819D01*
X104857541Y-60337819D02*
X104714684Y-60385438D01*
X103714684Y-61242580D02*
X103762303Y-61290200D01*
X103762303Y-61290200D02*
X103905160Y-61337819D01*
X103905160Y-61337819D02*
X104000398Y-61337819D01*
X104000398Y-61337819D02*
X104143255Y-61290200D01*
X104143255Y-61290200D02*
X104238493Y-61194961D01*
X104238493Y-61194961D02*
X104286112Y-61099723D01*
X104286112Y-61099723D02*
X104333731Y-60909247D01*
X104333731Y-60909247D02*
X104333731Y-60766390D01*
X104333731Y-60766390D02*
X104286112Y-60575914D01*
X104286112Y-60575914D02*
X104238493Y-60480676D01*
X104238493Y-60480676D02*
X104143255Y-60385438D01*
X104143255Y-60385438D02*
X104000398Y-60337819D01*
X104000398Y-60337819D02*
X103905160Y-60337819D01*
X103905160Y-60337819D02*
X103762303Y-60385438D01*
X103762303Y-60385438D02*
X103714684Y-60433057D01*
X102809922Y-61337819D02*
X103286112Y-61337819D01*
X103286112Y-61337819D02*
X103286112Y-60337819D01*
M02*
